<?xml version="1.0"?>
<svg xmlns="http://www.w3.org/2000/svg" xmlns:xlink="http://www.w3.org/1999/xlink" version="1.1" id="Capa_1" x="0px" y="0px" width="512px" height="512px" viewBox="0 0 878.426 878.426" style="enable-background:new 0 0 878.426 878.426;" xml:space="preserve"><g><g>
	<g>
		<path d="M447.025,0c0.5,6.5,0.7,13,0.7,19.5c0,69.4-27,134.6-76.1,183.7l-78.101,78.1c-40.6,40.6-62.9,94.5-62.9,151.9    s22.3,111.3,62.9,151.9c40.601,40.6,94.5,62.899,151.901,62.899c57.399,0,111.3-22.3,151.899-62.899L675.426,507    c49.1-49.1,114.3-76.1,183.7-76.1c6.5,0,12.899,0.2,19.3,0.7c-1.9-109.9-44.7-219.101-128.601-303    C666.025,44.801,556.825,2,447.025,0z" data-original="#000000" class="active-path" data-old_color="#000000" fill="#73D313"/>
		<path d="M707.226,538.8l-78.1,78.101C580.025,666,514.825,693,445.426,693c-69.401,0-134.601-27-183.701-76.1    c-49.1-49.101-76.1-114.3-76.1-183.7s27-134.6,76.1-183.7l78.1-78.1c40.601-40.6,62.9-94.5,62.9-151.9c0-6-0.3-12-0.8-18    c-99.7,8.4-197.1,50.8-273.3,127.1c-171.5,171.5-171.5,449.6,0,621.2c171.5,171.5,449.601,171.5,621.2,0    c76.2-76.199,118.601-173.5,127.101-273.199c-5.9-0.5-11.8-0.7-17.8-0.7C801.726,475.901,747.726,498.201,707.226,538.8z" data-original="#000000" class="active-path" data-old_color="#000000" fill="#73D313"/>
	</g>
</g></g> </svg>
